HIERARCHY
ROOT SpineBase
{
  OFFSET 0.000000 0.000000 0.000000
  CHANNELS 6 Xposition Yposition Zposition Zrotation Xrotation Yrotation
  JOINT SpineMid
  {
    OFFSET -0.000000 28.314524 0.000000
    CHANNELS 3 Zrotation Xrotation Yrotation
    JOINT SpineShoulder
    {
      OFFSET -0.091985 20.987331 -0.639979
      CHANNELS 3 Zrotation Xrotation Yrotation
      JOINT Neck
      {
        OFFSET -0.055758 6.933882 -0.501547
        CHANNELS 3 Zrotation Xrotation Yrotation
        JOINT Head
        {
          OFFSET -1.432883 12.993344 0.202329
          CHANNELS 3 Zrotation Xrotation Yrotation
          End Site
          {
            OFFSET 0 0 0
          }
        }
      }
      JOINT ShoulderLeft
      {
        OFFSET -15.472178 -1.154566 6.565291
        CHANNELS 3 Zrotation Xrotation Yrotation
        JOINT ElbowLeft
        {
          OFFSET -0.658890 -24.739152 2.240618
          CHANNELS 3 Zrotation Xrotation Yrotation
          JOINT WristLeft
          {
            OFFSET -6.929408 0.265347 -24.789523
            CHANNELS 3 Zrotation Xrotation Yrotation
            JOINT HandLeft
            {
              OFFSET -3.017734 -1.321610 -4.245843
              CHANNELS 3 Zrotation Xrotation Yrotation
              JOINT HandTipLeft
              {
                OFFSET -0.995193 5.051482 -5.797749
                CHANNELS 3 Zrotation Xrotation Yrotation
                End Site
                {
                  OFFSET 0 0 0
                }
              }
              JOINT ThumbLeft
              {
                OFFSET -4.525132 -4.745838 -0.816683
                CHANNELS 3 Zrotation Xrotation Yrotation
                End Site
                {
                  OFFSET 0 0 0
                }
              }
            }
          }
        }
      }
      JOINT ShoulderRight
      {
        OFFSET 15.449606 -1.573423 -5.706554
        CHANNELS 3 Zrotation Xrotation Yrotation
        JOINT ElbowRight
        {
          OFFSET 8.655695 -22.428352 -2.479896
          CHANNELS 3 Zrotation Xrotation Yrotation
          JOINT WristRight
          {
            OFFSET -16.354269 -0.299653 -12.191450
            CHANNELS 3 Zrotation Xrotation Yrotation
            JOINT HandRight
            {
              OFFSET -6.781676 0.978854 -6.514545
              CHANNELS 3 Zrotation Xrotation Yrotation
              JOINT HandTipRight
              {
                OFFSET -3.124855 0.118183 -2.567854
                CHANNELS 3 Zrotation Xrotation Yrotation
                End Site
                {
                  OFFSET 0 0 0
                }
              }
              JOINT ThumbRight
              {
                OFFSET 0.133821 -1.473828 -3.784782
                CHANNELS 3 Zrotation Xrotation Yrotation
                End Site
                {
                  OFFSET 0 0 0
                }
              }
            }
          }
        }
      }
    }
  }
  JOINT HipLeft
  {
    OFFSET -7.238987 0.204302 -1.162509
    CHANNELS 3 Zrotation Xrotation Yrotation
    JOINT KneeLeft
    {
      OFFSET -6.441041 -33.126683 2.910801
      CHANNELS 3 Zrotation Xrotation Yrotation
      JOINT AnkleLeft
      {
        OFFSET -0.464965 -34.053089 5.582557
        CHANNELS 3 Zrotation Xrotation Yrotation
        JOINT FootLeft
        {
          OFFSET -3.260282 -3.604573 -11.904730
          CHANNELS 3 Zrotation Xrotation Yrotation
          End Site
          {
            OFFSET 0 0 0
          }
        }
      }
    }
  }
  JOINT HipRight
  {
    OFFSET 6.735611 1.072087 -5.481107
    CHANNELS 3 Zrotation Xrotation Yrotation
    JOINT KneeRight
    {
      OFFSET 5.085179 -31.258739 5.124350
      CHANNELS 3 Zrotation Xrotation Yrotation
      JOINT AnkleRight
      {
        OFFSET 0.762797 -35.273274 7.146938
        CHANNELS 3 Zrotation Xrotation Yrotation
        JOINT FootRight
        {
          OFFSET -3.209439 -2.005939 -14.408927
          CHANNELS 3 Zrotation Xrotation Yrotation
          End Site
          {
            OFFSET 0 0 0
          }
        }
      }
    }
  }
}
MOTION
Frames: 8
Frame Time: 0.033333
24.654259 70.580042 350.491969 0.000000 0.000000 17.172825 -0.000000 0.000000 -17.172825 -0.000000 0.000000 0.000000 -0.000000 0.000000 0.000000 0.000000 0.000000 0.000000 -0.000000 0.000000 0.000000 -0.000000 0.000000 0.000000 -0.000000 0.000000 0.000000 -0.000000 0.000000 0.000000 0.000000 0.000000 0.000000 0.000000 0.000000 0.000000 -0.000000 0.000000 0.000000 -0.000000 0.000000 0.000000 -0.000000 0.000000 0.000000 -0.000000 0.000000 0.000000 0.000000 0.000000 0.000000 0.000000 0.000000 0.000000 -0.000000 0.000000 -17.172825 -0.000000 0.000000 0.000000 -0.000000 0.000000 0.000000 0.000000 0.000000 0.000000 -0.000000 0.000000 -17.172825 -0.000000 0.000000 0.000000 -0.000000 0.000000 0.000000 0.000000 0.000000 0.000000
24.510823 70.600305 350.470858 -0.037959 0.049474 17.035422 0.021800 -0.058424 -17.035395 -0.000000 0.000000 0.000000 -0.000000 0.000000 0.000000 0.000000 0.000000 0.000000 0.086492 1.014643 -0.019973 -0.393780 0.083463 -0.812927 0.006941 -0.355492 0.132333 0.635532 -1.936942 0.818440 0.000000 0.000000 0.000000 0.000000 0.000000 0.000000 -0.611696 0.749878 0.361523 1.141989 -1.151389 -0.897111 -2.942554 2.780512 1.907654 1.711573 -1.928974 -0.778895 0.000000 0.000000 0.000000 0.000000 0.000000 0.000000 0.021800 -0.058424 -17.035395 -0.000000 0.000000 0.000000 -0.000000 0.000000 0.000000 0.000000 0.000000 0.000000 0.021800 -0.058424 -17.035395 0.392549 -0.882024 0.063381 1.218862 -7.394216 3.686573 0.000000 0.000000 0.000000
24.338794 70.607811 350.453609 -0.061469 0.098815 16.968346 0.029954 -0.112453 -16.968263 -0.000000 0.000000 0.000000 0.863523 -0.642266 -0.079376 0.000000 0.000000 0.000000 0.190921 1.960638 -0.038260 -0.777161 0.189614 -1.534187 -0.155762 -0.451534 0.171293 1.383193 -3.644332 1.643699 0.000000 0.000000 0.000000 0.000000 0.000000 0.000000 -1.155902 1.522446 0.732523 1.643611 -1.915404 -1.440327 -5.237188 4.940174 3.722388 2.972160 -3.523384 -1.365326 0.000000 0.000000 0.000000 0.000000 0.000000 0.000000 0.029954 -0.112453 -16.968263 -0.000000 0.000000 0.000000 -0.000000 0.000000 0.000000 0.000000 0.000000 0.000000 0.029954 -0.112453 -16.968263 0.774818 -1.639007 0.132227 3.036836 -14.833306 7.652236 0.000000 0.000000 0.000000
24.138172 70.602563 350.440221 -0.070460 0.148027 16.971656 0.024183 -0.162148 -16.971531 -0.000000 0.000000 0.000000 1.445916 -1.174211 -0.137025 0.000000 0.000000 0.000000 0.313434 2.835366 -0.055028 -1.153469 0.318650 -2.161618 -0.468811 -0.321758 0.119265 2.189010 -5.016112 2.466645 0.000000 0.000000 0.000000 0.000000 0.000000 0.000000 -1.634674 2.320684 1.113206 1.590632 -2.351081 -1.047453 -6.827690 6.640672 4.792363 3.772507 -4.757384 -1.811343 0.000000 0.000000 0.000000 0.000000 0.000000 0.000000 0.024183 -0.162148 -16.971531 -0.000000 0.000000 0.000000 -0.000000 0.000000 0.000000 0.000000 0.000000 0.000000 0.024183 -0.162148 -16.971531 1.139946 -2.252367 0.203819 5.127791 -21.205794 11.406950 0.000000 0.000000 0.000000
23.908958 70.584559 350.430695 -0.064863 0.197114 17.045302 0.004235 -0.207468 -17.045182 -0.000000 0.000000 0.000000 2.133086 -1.851722 -0.202601 0.000000 0.000000 0.000000 0.454157 3.636485 -0.070379 -1.525956 0.471023 -2.693507 -0.910626 0.002770 -0.019413 2.996665 -5.959467 3.275124 0.000000 0.000000 0.000000 0.000000 0.000000 0.000000 -2.049703 3.147774 1.503826 0.835143 -2.303968 -1.601985 -7.718075 7.524402 6.925325 4.109372 -5.607410 -2.165549 0.000000 0.000000 0.000000 0.000000 0.000000 0.000000 -0.476444 0.434184 -17.192917 0.598497 0.370527 0.131898 0.048454 -0.841517 0.019766 0.000000 0.000000 0.000000 0.480023 0.530851 -16.869754 1.232853 -3.556184 0.118242 6.898330 -25.659222 14.281345 0.000000 0.000000 0.000000
23.651151 70.553799 350.425030 -0.044604 0.246078 17.189121 -0.030111 -0.248268 -17.189091 -0.000000 0.000000 0.000000 2.929495 -2.680249 -0.272039 0.000000 0.000000 0.000000 0.613199 4.361904 -0.084347 -1.897740 0.647386 -3.128480 -1.458322 0.493641 -0.239337 3.750613 -6.401034 4.055600 0.000000 0.000000 0.000000 0.000000 0.000000 0.000000 -2.402311 4.007119 1.904668 -0.453590 -1.949501 -1.253215 -7.836708 7.974686 8.277816 3.989351 -6.051267 -2.473818 0.000000 0.000000 0.000000 0.000000 0.000000 0.000000 -0.492149 0.569527 -17.373055 0.762165 0.271114 0.189996 -0.080016 -0.913353 -0.001282 0.000000 0.000000 0.000000 0.619910 0.477095 -16.979598 1.372887 -3.883207 0.156722 7.735385 -27.798609 15.651245 0.000000 0.000000 0.000000
23.353033 70.508227 350.424070 -0.037103 0.291679 17.470906 -0.052177 -0.289363 -17.470943 -0.000000 0.000000 0.000000 4.149694 -3.706047 -0.337992 0.000000 0.000000 0.000000 0.888550 5.033925 -0.093129 -2.108110 -0.256955 -3.305602 -3.377568 3.512153 -0.667186 5.785824 -7.114162 5.577509 0.000000 0.000000 0.000000 0.000000 0.000000 0.000000 -2.566650 4.818320 2.261197 -2.893321 -0.843686 -0.319549 -6.587556 7.467940 9.315444 3.865744 -6.526358 -2.839438 0.000000 0.000000 0.000000 0.000000 0.000000 0.000000 -0.435377 0.711320 -17.691171 0.891380 0.187808 0.250925 -0.226647 -1.023702 -0.025165 0.000000 0.000000 0.000000 0.787870 0.290570 -17.237049 1.589990 -4.085565 0.235178 7.895428 -28.898489 16.056694 0.000000 0.000000 0.000000
23.037789 70.449027 350.415664 -0.003504 0.345305 17.853856 -0.102533 -0.329750 -17.854140 -0.000000 0.000000 0.000000 5.426172 -4.978573 -0.396057 0.000000 0.000000 0.000000 1.066548 5.781753 -0.111919 -2.710511 0.860963 -4.039456 -3.308918 2.457174 -0.441933 6.161493 -5.979307 6.467361 0.000000 0.000000 0.000000 0.000000 0.000000 0.000000 -2.405358 5.251270 2.411299 -5.810462 0.748698 0.593119 -5.181235 6.626645 11.094826 2.624054 -5.827421 -3.674983 0.000000 0.000000 0.000000 0.000000 0.000000 0.000000 -0.340503 0.905082 -18.120424 1.146410 -0.075950 0.353702 -0.542399 -1.020273 -0.079696 0.000000 0.000000 0.000000 0.929504 0.081807 -17.596398 1.583139 -3.842039 0.263016 6.665096 -27.285277 14.365161 0.000000 0.000000 0.000000
